# xmcd CD database file
#
# Track frame offsets:
#	150
#	19500
#	35752
#	54777
#	75302
#	97420
#	111370
#	130012
#	146355
#	161085
#	175415
#
# Disc length: 2667 seconds
#
# Revision: 0
# Processed by: cddbd v1.5.1PL0 Copyright (c) Steve Scherf et al.
# Submitted via: CDex 1.60beta1
#
DISCID=8b0a690b
DTITLE=DAVID DIGGS - WESTCOASTAL
DYEAR=1999
DGENRE=Fusion
TTITLE0=Lonly Weekend
TTITLE1=Framed by Love
TTITLE2=Easier Said Than Done
TTITLE3=Fallen Angel
TTITLE4=Backbone
TTITLE5=Don't Look Back
TTITLE6=Jamie
TTITLE7=Say Goodbye
TTITLE8=Light The Light
TTITLE9=Love Won't Always Pass You By
TTITLE10=Backbone<extended mix version>
EXTD=YEAR: 1999
EXTT0=
EXTT1=
EXTT2=
EXTT3=
EXTT4=
EXTT5=
EXTT6=
EXTT7=
EXTT8=
EXTT9=
EXTT10=
PLAYORDER=
